<svg  viewBox="0 0 40 90" fill="none" xmlns="http://www.w3.org/2000/svg">
<path d="M19.7399 0L23.2 2.45999C23.1 3.73999 23.4799 5.11999 23.4799 6.20999C23.4999 33.01 23.4999 60.1 23.4799 87.48C23.4795 87.6457 23.4372 87.8093 23.3569 87.9559C23.2767 88.1025 23.1609 88.2276 23.02 88.32C15.05 93.52 15.87 82.08 16.02 77.03C16.1466 72.75 16.2099 69.54 16.2099 67.4C16.2032 46.3333 16.1966 25.2666 16.1899 4.19998C16.1899 1.69998 17.3199 0.29 19.7399 0Z" fill="currentColor"/>
<path d="M7.33997 63.79C7.33997 64.7448 6.96071 65.6605 6.28558 66.3356C5.61045 67.0107 4.69477 67.39 3.73999 67.39H3.59998C2.6452 67.39 1.72951 67.0107 1.05438 66.3356C0.379251 65.6605 0 64.7448 0 63.79V21.61C0 20.6552 0.379251 19.7396 1.05438 19.0644C1.72951 18.3893 2.6452 18.01 3.59998 18.01H3.73999C4.69477 18.01 5.61045 18.3893 6.28558 19.0644C6.96071 19.7396 7.33997 20.6552 7.33997 21.61V63.79Z" fill="currentColor"/>
<path d="M39.74 85.9799C39.74 86.9056 39.3723 87.7933 38.7178 88.4478C38.0633 89.1023 37.1756 89.47 36.25 89.47H35.99C35.0644 89.47 34.1767 89.1023 33.5222 88.4478C32.8677 87.7933 32.5 86.9056 32.5 85.9799V21.46C32.5 20.5344 32.8677 19.6467 33.5222 18.9922C34.1767 18.3377 35.0644 17.97 35.99 17.97H36.25C37.1756 17.97 38.0633 18.3377 38.7178 18.9922C39.3723 19.6467 39.74 20.5344 39.74 21.46V85.9799Z" fill="currentColor"/>
</svg>
