<svg transform="scale(1)" xmlns="http://www.w3.org/2000/svg" viewBox="0 0 100 100" id="wPtL5hKUFc" class="pbimage_pbimage__wrapper__image__0LEis false"><title>Bubble Chat</title><defs><style> .cls-1{fill:#f0457d;} .cls-2{fill:#13183f;opacity:0.15;} .cls-3{fill:#f2f2f2;} .cls-4{fill:#0099f5;}
 .cls-4{fill:#1864ab;}
 .cls-3{fill:#f8f9fa;}
 .cls-2{fill:#212529;}
 .cls-1{fill:#f08e33;}</style></defs><g id="_0851_Bubble_Chat" data-name="0851_Bubble_Chat"><path class="cls-1" d="M80.57,55.76H47.89a3.59,3.59,0,0,0-3.59,3.59V82.27a3.6,3.6,0,0,0,3.59,3.59H69.71l3,4.6a.48.48,0,0,0,.66.14.68.68,0,0,0,.12-.12l3.33-4.62h3.77a3.59,3.59,0,0,0,3.59-3.59h0V59.35A3.59,3.59,0,0,0,80.57,55.76Z" fill="#f08e33"></path><path class="cls-2" d="M45.83,83.71a3.71,3.71,0,0,1-1.31-.25,3.59,3.59,0,0,0,3.39,2.4H69.7l-1.4-2.15Z" fill="#212529"></path><path class="cls-2" d="M81.91,56a3.76,3.76,0,0,1,.2,1.19V80.12a3.59,3.59,0,0,1-3.59,3.59H74.75l-3.33,4.62s0,0,0,.06l1.34,2.07a.46.46,0,0,0,.65.15.53.53,0,0,0,.13-.13l3.34-4.62h3.76a3.59,3.59,0,0,0,3.59-3.59V59.35A3.59,3.59,0,0,0,81.91,56Z" fill="#212529"></path><polygon class="cls-3" points="73.48 65.39 55.35 65.39 55.18 62.85 73.48 62.85 73.48 65.39" fill="#f8f9fa"></polygon><rect class="cls-3" x="63.06" y="60.59" width="2.54" height="3.74" fill="#f8f9fa"></rect><path class="cls-3" d="M59.35,79.25,58.16,77a23,23,0,0,0,9.24-8.49,15.38,15.38,0,0,0,1.91-4.62l2.5.42C71.75,64.7,70.18,73.51,59.35,79.25Z" fill="#f8f9fa"></path><path class="cls-3" d="M71.46,80.13c-6-1.66-11.35-9.5-11.58-9.83L62,68.88c.07.1,5.1,7.4,10.16,8.8ZM60.93,69.59l1-.71h0Z" fill="#f8f9fa"></path><path class="cls-4" d="M65.68,9.32H20.75a4.93,4.93,0,0,0-4.93,4.93h0v31.5a4.93,4.93,0,0,0,4.93,4.93h10.9L35.76,57a.65.65,0,0,0,.9.19.46.46,0,0,0,.17-.17l4.59-6.36H65.68a4.94,4.94,0,0,0,4.94-4.93h0V14.25A4.94,4.94,0,0,0,65.68,9.32Z" fill="#1864ab"></path><path class="cls-2" d="M17.93,47.73a5.1,5.1,0,0,1-1.81-.34,4.94,4.94,0,0,0,4.65,3.29H31.64l-1.91-3Z" fill="#212529"></path><path class="cls-2" d="M67.52,9.66a5.09,5.09,0,0,1,.28,1.64V42.8a4.94,4.94,0,0,1-4.94,4.93H38.6L34,54.09l-.07.08L35.78,57a.66.66,0,0,0,.91.19.55.55,0,0,0,.17-.17l4.58-6.36H65.72a4.93,4.93,0,0,0,4.93-4.93h0V14.25A4.93,4.93,0,0,0,67.52,9.66Z" fill="#212529"></path><path class="cls-3" d="M37.37,36.12l-1.94,4.42H31.92l8.56-19.42H44l8.56,19.42H49l-1.93-4.42Zm8.39-3-3.53-8-3.53,8Z" fill="#f8f9fa"></path></g></svg>