<svg viewBox="0 0 210 149" fill="none" xmlns="http://www.w3.org/2000/svg">
<g clip-path="url(#clip0_1_139)">
<path d="M87.0925 21.7169C86.6314 21.0007 86.1703 20.2845 85.658 19.5938C85.5555 19.4403 85.4531 19.2613 85.3506 19.1334C85.1713 18.8776 84.9664 18.673 84.7871 18.4427C76.1803 7.26455 62.5529 0 47.1324 0C21.1071 0 0 20.6426 0 46.0941C0 71.5456 21.1071 92.1882 47.1324 92.1882C54.5353 92.1882 61.5027 90.4743 67.7528 87.5071C65.7292 100.041 60.5293 111.015 51.0516 116.105C50.3343 115.465 49.5915 114.877 48.7462 114.314C46.0822 112.575 42.3679 111.705 39.2428 111.705C35.1188 111.705 31.3789 113.163 28.177 115.644C26.3071 117.077 24.7957 118.919 23.643 120.965C22.1061 123.344 20.9022 127.36 21.0303 130.301C21.7987 146.058 36.9631 148.898 44.0073 148.974C70.2375 149.281 87.7072 129.508 95.4431 104.466C102.641 81.1634 101.13 43.2548 87.0925 21.6913V21.7169Z" fill="currentColor"/>
<path d="M196.733 21.7169C196.272 21.0007 195.811 20.2845 195.299 19.5938C195.196 19.4403 195.094 19.2613 194.992 19.1334C194.812 18.8776 194.607 18.673 194.428 18.4427C185.821 7.26455 172.194 0 156.799 0C130.774 0 109.667 20.6426 109.667 46.0941C109.667 71.5456 130.774 92.1882 156.799 92.1882C164.202 92.1882 171.169 90.4743 177.419 87.5071C175.396 100.041 170.196 111.015 160.718 116.105C160.001 115.465 159.258 114.877 158.413 114.314C155.749 112.575 152.034 111.705 148.909 111.705C144.785 111.705 141.045 113.163 137.844 115.644C135.974 117.077 134.462 118.919 133.31 120.965C131.773 123.344 130.569 127.36 130.697 130.301C131.465 146.058 146.63 148.898 153.674 148.974C179.904 149.281 197.374 129.508 205.11 104.466C212.308 81.1634 210.796 43.2548 196.759 21.6913L196.733 21.7169Z" fill="currentColor"/>
</g>
<defs>
<clipPath id="clip0_1_139">
<rect width="209.333" height="148.978" fill="white"/>
</clipPath>
</defs>
</svg>
