<svg transform="scale(1)" version="1.1" id="nRogQNhJuq" xmlns="http://www.w3.org/2000/svg" xmlns:xlink="http://www.w3.org/1999/xlink" x="0px" y="0px" viewBox="0 0 500 500" xml:space="preserve" class="pbimage_pbimage__wrapper__image__0LEis false"><title>Feeling Lonely</title><style type="text/css"> .st0{fill:#000005;} .st1{fill:#59BE4C;} .st2{fill:#FFFFFF;}
 .st2{fill:#f8f9fa;}
 .st1{fill:#4dabf7;}
 .st0{fill:#212529;}</style><g id="swing-2"><path class="st0" d="M350.9,386.1c0,0-69.8-1.9-52.5,11.1S409.6,392.9,350.9,386.1z" fill="#212529"></path><path class="st1" d="M364.9,106.1c0,6-0.6,12.1-1,18.2c-0.7,13.3-1.5,26.5-2.3,39.8c-0.9,15.8-1.8,31.7-2.8,47.5
		c-0.8,13.8-1.6,27.6-2.4,41.4c-0.4,7.1-0.9,14.2-1.2,21.4c0,0.2,0,0.4,0,0.6c0,2,4.8,1,4.8-0.7c0-6,0.6-12.1,1-18.1
		c0.8-13.3,1.5-26.5,2.3-39.8l2.8-47.5c0.8-13.8,1.6-27.6,2.4-41.4c0.4-7.1,0.9-14.2,1.2-21.4c0-0.2,0-0.4,0-0.6
		C369.7,103.4,364.8,104.4,364.9,106.1L364.9,106.1z" fill="#4dabf7"></path><path class="st2" d="M350,267.4c0,0,13.3,1.9,22-28.1s-2.4-43.7-8.6-43.3s-4.7,5.5-4.7,5.5s-5.5,2.7-1.2,5.9c0,0-5.1,2.7-2.4,7.8
		s7.1,4.3,7.1,4.3s-8.6,17.2-14.9,19.8S339.4,267.4,350,267.4z" fill="#f8f9fa"></path><path class="st0" d="M351.1,267.9c4,0.6,7.9-1.6,10.7-4.2c3.7-3.4,6.4-8,8.4-12.6c3.4-7.5,5.6-15.4,6.7-23.5
		c1-6.1,0.7-12.4-0.6-18.4c-0.8-3.8-2.6-7.3-5.2-10.1c-2.7-2.4-6.2-3.7-9.8-3.5c-2.1,0-4.7,0.8-5.3,3.1c-0.2,0.6-0.2,1.3-0.1,1.9
		c0.1,0.5,0.3,0.4-0.1,0.6c-1.6,1-3.5,2.7-2.1,4.6c0.2,0.2,1.1,1,1.1,1.1s-0.5,0.3-0.6,0.4c-0.8,0.6-1.4,1.3-1.9,2.1
		c-1.5,2.7-0.1,5.8,2,7.8s5.6,2.7,8.4,2.9c0.5,0.1,1.1,0.1,1.6,0l-4.8-1c-1.5,3-3.2,5.9-4.9,8.7c-1.4,2.3-3,4.5-4.7,6.6
		c-1.3,1.8-3.1,3.3-5,4.4c-3.1,1.5-4.1,5.4-4.7,8.5c-0.9,4.4-0.8,9,0.4,13.3c0.5,2,1.5,3.7,3,5.1c2.1,1.8,5.6,2.3,8.3,2.3
		c1,0-0.7-0.5-0.8-0.5c-1.1-0.3-2.2-0.5-3.4-0.5c-0.3,0-0.1-0.1,0,0c0.2,0.4,1.9,0,2.1,0.4c0,0-0.2-0.1-0.3-0.1
		c-0.3-0.2-0.7-0.4-1-0.7c-0.6-0.5-1.2-1.1-1.6-1.8c-1-1.6-1.6-3.4-1.9-5.2c-0.8-4.1-0.7-8.4,0.3-12.4c0.4-1.7,1-3.4,1.8-4.9
		c0.7-1.1,1.7-2,2.9-2.6c1.7-1,3.3-2.4,4.5-4c1.6-1.9,3.1-4,4.4-6.1c2-3,3.8-6.2,5.4-9.4c0.1-0.2-4.3-1.1-4.8-1c-0.2,0-0.2,0-0.4,0
		s0.1,0,0.9,0.2c0.4,0,0.7,0.1,1.1,0.2c0.2,0.1,0.2,0-0.1-0.1s-0.7-0.3-1-0.6c-1.8-1.2-3.1-3.2-3.5-5.4c-0.2-2.3,1.1-4.5,3.1-5.6
		l-0.1-0.1c-1.4-1.1-2.1-2.5-1-4c0.6-0.7,1.3-1.3,2.1-1.7l0.1-0.1c-0.7-2.1,0.4-4.3,2.5-5.1c0.7-0.2,1.6-0.1,2.2-0.4
		c-0.6,0.2-1.7-0.2-2.2-0.4c-0.3-0.1-0.4-0.2,0,0c0.8,0.4,1.5,0.9,2.2,1.4c4.6,4,6.2,10.8,6.7,16.5c1,10.8-1.6,22-5.5,32.1
		c-2.5,6.6-6,13.7-11.9,18c-1.5,1.2-3.3,2-5.2,2.4c-0.3,0.1-0.6,0.1-0.9,0.1c-0.1,0-0.2,0-0.4,0h-0.1c-0.2,0-0.7,0-0.1,0h0.3
		c-0.1,0-1-0.2-1.2,0s0,0.1,0.2,0.2C348.5,267.7,350.3,267.8,351.1,267.9z" fill="#212529"></path><path class="st1" d="M359,212.4c0,6.8-0.6,13.6-0.9,20.4c-0.5,10.2-1,20.4-1.5,30.6c-0.1,2.7-0.3,5.4-0.3,8c0.2,1.1,0.9,2.1,2,2.5
		c0.5,0.2,2.4,0.7,2.4-0.4c0-6.8,0.6-13.6,1-20.4c0.5-10.2,1-20.4,1.5-30.6c0.1-2.7,0.3-5.4,0.4-8c-0.2-1.1-0.9-2.1-2-2.5
		C360.9,211.7,359,211.2,359,212.4L359,212.4z" fill="#4dabf7"></path><path class="st2" d="M266.9,297.4c0,0,35.1-12.6,40.1-11.7s30.7,14.2,52.3,14.1l3.8,6.2c0,0-9.6,7.1-30.8,11.2
		S267.3,310.9,266.9,297.4z" fill="#f8f9fa"></path><path class="st1" d="M268.2,297.8c9.4-3.4,19-6.6,28.6-9.4l0.7-0.2l1-0.3l2.1-0.5l1.8-0.4l0.9-0.2c0.2-0.1,1-0.2,0.3-0.1l1.4-0.2
		c0.6-0.1-0.6,0.1,0,0c0.4,0,0.6,0,0.1,0c0.2,0,0.6,0.1,0,0c0.5,0.1-0.2,0,0.1,0c0.4,0.1,0.8,0.2,1.2,0.3c6.5,2.1,12.8,5.1,19.3,7.3
		c10.4,3.6,21.4,6.5,32.4,6.5l-1.3-0.4l3.8,6.2l0.3-0.4c-3.1,2.1-6.5,3.9-10.1,5.1c-4.2,1.7-8.6,3.1-13,4.1
		c-2.4,0.6-4.7,1.1-7.1,1.5l-1.1,0.1c-0.8,0.1,0.3,0-0.2,0l-0.6,0.1c-0.9,0.1-1.8,0.1-2.7,0.2c-7.8,0.3-15.5-0.4-23.1-1.9
		c-7.6-1.3-14.9-3.6-21.9-6.8c-4.5-2.1-11.2-5.8-11.5-11.5c0-0.9-5-0.4-4.9,0.8c0.2,5.3,6,8.8,10.1,11c7.1,3.8,15,6,22.8,7.6
		c8.2,1.8,16.6,2.6,25,2.5c9.7-0.2,19.3-2.6,28.4-5.9c4.9-1.8,10.2-3.8,14.5-7c0.2-0.1,0.3-0.2,0.3-0.4l-1.9-3.1
		c-0.5-1.1-1.2-2.1-1.9-3.1c-0.7-0.8-2.9-0.4-3.9-0.5c-1.4,0-2.7-0.2-4-0.3c-2.8-0.3-5.6-0.8-8.4-1.4c-10-2.2-19.5-5.8-28.9-9.6
		c-2.5-1-5-2.3-7.7-2.7c-2.4-0.4-5.1,0.2-7.4,0.8c-7,1.7-14,3.7-20.8,6.1c-5.1,1.7-10.1,3.4-15,5.2c-0.5,0.2-1.6,0.7-0.7,1.1
		S267.4,298.1,268.2,297.8z" fill="#4dabf7"></path><path class="st0" d="M368,369.5l5.6,3.4c0,0,13.6,13,10.6,15.5s-12.1-0.7-23.1-7.3s-13.4-12.6-5.7-18.7L368,369.5z" fill="#212529"></path><path class="st0" d="M366.6,370.5l4.4,2.7l1,0.6c0.5,0.3-0.2-0.1-0.2-0.1c0.1,0.2,0.7,0.6,0.8,0.8c2.9,2.8,5.6,5.8,7.9,9.1
		c0.5,0.7,0.9,1.4,1.3,2.2c0.1,0.3,0.2,0.6,0.3,0.9c0.1,0.5,0.1,0.3,0,0.6c0,0.2,0,0.2-0.1,0.2l-0.3,0.2c0.3-0.2-0.2,0.1-0.3,0.1
		c-0.3,0.1,0.2,0-0.3,0c-0.1,0-0.8,0-0.3,0c-0.2,0-0.5,0-0.7,0h-0.5c0.3,0,0,0-0.1,0c-2.9-0.6-5.8-1.6-8.5-3c-4-1.8-7.8-4-11.4-6.5
		c-2.6-1.8-5.6-4.2-6.2-7.5c-0.6-3,1.8-5.6,4-7.4l-3.5-0.2L366.6,370.5c1,0.5,2.6,0.9,3.5,0.2s0.3-1.6-0.5-2l-12.6-7.1
		c-0.9-0.5-2.6-0.9-3.5-0.2c-2.4,1.9-4.9,4.5-5,7.8s2,5.9,4.3,8c3.4,3.2,7.7,5.6,11.9,7.8c3.7,2,7.5,3.7,11.5,4.9
		c2.7,0.8,6,1.5,8.8,0.5c1.9-0.7,2.6-2.1,1.9-4c-0.9-2.1-2.2-4.1-3.8-5.9c-1.6-2-3.3-3.8-5.1-5.6c-0.9-1-1.9-2-3-2.8
		c-1.8-1.1-3.6-2.2-5.4-3.3c-1-0.6-2.3-0.7-3.5-0.2C365.1,369.1,365.8,370,366.6,370.5z" fill="#212529"></path><path class="st2" d="M376.4,355c0,0-8.1,8.2-8.1,10.2s12,14.4,10.2,13.6c-1.3-0.5-5.4,0.6-14.9-5.6s-8.6-7.4-8.3-9.9
		s5.6-15.8,5.6-15.8L376.4,355z" fill="#f8f9fa"></path><path class="st0" d="M374.9,353.9c-1.3,1.3-2.5,2.7-3.8,4c-1.7,2-3.9,4.1-4.9,6.6c-0.7,1.9,0.6,3.6,1.7,5c1.6,2.1,3.3,4,5,6
		c0.8,1,1.7,1.9,2.5,2.9c0.3,0.3,0.5,0.6,0.8,1c0.1,0.1,0.2,0.3,0.2,0.4c0,0,0,0.1,0.1,0.1c-0.2-0.1-0.2-0.7-0.2-0.8l0.4-1l0,0
		l0.9-0.9l0,0l1.2-0.5c0.9-0.1,1.3,0.1,0.7,0c-0.3-0.1-0.6-0.1-0.9-0.2l-1.2-0.1l-0.7-0.1c-0.1,0-0.9-0.1-0.5-0.1
		c-0.8-0.2-1.6-0.4-2.4-0.6c-5-1.6-9.7-4.8-13.8-8.1c-1-0.7-1.9-1.6-2.5-2.7c-0.2-0.4,0.1,0.4,0,0c0-0.1,0-0.2-0.1-0.3
		s0-0.8-0.1-0.1c0-0.3,0-0.7,0.1-1c0-0.4,0.1-0.7,0.2-1c0.1-0.5-0.1,0.3,0.1-0.3c0.1-0.4,0.2-0.7,0.3-1.1c0.5-1.7,1.1-3.4,1.8-5.1
		c1-2.8,2.1-5.6,3.2-8.4l-3.5,1.8l15.5,7.4c2,1,5.2-2.6,2.6-3.9l-15.5-7.4c-1.3-0.6-3,0.7-3.5,1.8c-2,5-4.2,10-5.5,15.2
		c-0.6,1.6-0.5,3.4,0.1,5c0.7,1.1,1.5,2.1,2.5,2.9c1.8,1.5,3.7,2.9,5.8,4.2c3.6,2.4,7.6,4.6,11.9,5.5c1.1,0.2,2.2,0.3,3.2,0.4
		l0.5,0.1c-0.2,0-0.5-0.1-0.1,0c1.1,0.3,2.2,0,3-0.8c2.1-2-0.7-4.4-2-6c-2-2.4-4.1-4.7-6-7.2c-0.4-0.5-0.8-1-1.1-1.6l-0.4-0.6
		c-0.2-0.4,0.1,0.4,0-0.1c0.1,0.2,0,0.5,0,0.3s0-0.1-0.1,0.2l0.1-0.2c0,0,0.1-0.3,0.2-0.3c-0.2,0.5,0,0,0.1-0.1
		c0.4-0.7,0.9-1.4,1.5-2c1.7-2.2,3.6-4.2,5.6-6.2c0.7-0.7,1.2-2.1,0.3-2.8S375.6,353.1,374.9,353.9z" fill="#212529"></path><path class="st2" d="M352.6,267.5c1.4-0.3,31.9-15.5,50.8,10.4c11.6,16-8.7,99.2-35.6,87.8s-11.1-40.7-6.7-50.4
		S352.6,267.5,352.6,267.5z" fill="#f8f9fa"></path><path class="st0" d="M354.1,269.4c2-0.5,3.9-1.5,5.8-2.1c4.2-1.4,8.5-2.2,12.9-2.5c11.3-0.7,23,3.5,29.4,13.4l0.2,0.4
		c-0.2-0.3-0.1-0.2,0,0s0.3,0.6,0.4,0.9s0.3,0.8,0.2,0.6c0.1,0.4,0.2,0.7,0.4,1.1c0.4,1.5,0.7,3.1,0.9,4.7c0.4,4,0.5,7.9,0.2,11.9
		c-0.7,9.9-2.5,19.7-5.4,29.2c-2.7,9.1-6.2,18.3-11.6,26.2c-3.6,5.4-8.9,11.5-15.9,11.8c-0.7,0-1.3,0-2-0.1
		c-0.4-0.1-0.7-0.1-1.1-0.2l-0.6-0.2l-0.4-0.1c-2.7-1-5.2-2.4-7.4-4.2c-0.9-0.7-1.7-1.5-2.4-2.5c-0.7-0.9-1.2-1.8-1.7-2.8
		c-1-2.2-1.7-4.6-1.9-7c-1-9.4,2.8-18.8,6.6-27.1c0.7-1.5,1.5-2.9,2-4.4c0.5-1.6,0.8-3.3,0.7-5c-0.1-4.9-0.7-9.9-1.8-14.7
		c-1.9-8.9-4.2-17.7-7.1-26.4c-0.2-0.5-0.3-1-0.5-1.5c-0.4-1.1-1.2-2-2.2-2.6c-0.4-0.2-1.9-0.8-1.5,0.3c2.3,7,4.4,14,6.1,21.1
		c1.4,5.4,2.4,10.8,3,16.3c0.4,3.7,0.5,7.4-1.1,10.8c-3.9,8.5-7.9,17.2-8.2,26.7c-0.3,5.3,1.2,10.6,4.1,15.1
		c3.8,5.4,9.2,9.5,15.4,11.6c6.9,2.3,13.3-1.7,17.7-6.8c6.2-7.1,10.1-16.1,13.2-24.9c3.5-9.8,5.8-20,7-30.4c0.5-4.5,0.7-9,0.5-13.4
		c-0.1-3.5-0.6-6.9-1.7-10.2c-0.5-1.5-1.3-3-2.2-4.3c-2.4-3.3-5.2-6.2-8.3-8.8c-5-4.1-11.1-6.7-17.5-7.8c-8.8-1.3-17.8,0.3-26,3.5
		c-0.6,0.3-1.2,0.5-1.8,0.7C349.8,266,352.8,269.8,354.1,269.4z" fill="#212529"></path><path class="st0" d="M390.5,362.5c0,0,1.9,5.5,9.6,12.3s26.7,13.6,35.1,7.8s-9.7-16.5-19.4-17.5S390.5,362.5,390.5,362.5z" fill="#212529"></path><path class="st0" d="M388.1,363c0.9,2.3,2.2,4.5,3.8,6.4c3,4,6.8,7.4,11,10.1c4.1,2.5,8.5,4.4,13,5.7c4.5,1.4,9.2,1.9,13.9,1.5
		c3.6-0.4,8-1.9,9.7-5.5c1.4-3.1-0.6-6.2-2.7-8.4c-2.9-2.8-6.2-5-9.9-6.6c-3.7-1.7-7.6-2.9-11.6-3.3c-8.3-0.8-16.5-1.7-24.8-2.5
		c-1.3-0.1-2.4,0.9-2.5,2.1c0,1.4,1.3,2,2.5,2.1l19,2c2.1,0.2,4.2,0.4,6.4,0.6c-0.5-0.1,0.4,0.1,0.5,0.1c0.4,0.1,0.8,0.1,1.2,0.2
		c0.9,0.2,1.8,0.4,2.6,0.7c3.3,1.1,6.5,2.6,9.4,4.6c1.3,0.9,2.6,1.9,3.7,3.1c0.8,0.8,1.3,1.7,1.6,2.8c-0.1-0.5,0,0.3,0,0.5
		c0,0.4,0,0,0-0.1c0,0.1-0.1,0.3-0.1,0.4s-0.1,0.3-0.1,0.4c0-0.1,0.2-0.4,0,0c-0.1,0.1-0.1,0.2-0.2,0.3c-0.3,0.4,0.2-0.2-0.1,0.2
		c-1,0.9-2.3,1.5-3.6,1.8c-3.5,0.9-7.5,0.4-11.1-0.5c-4.1-1-8.1-2.5-11.9-4.5c-4.2-2.3-7.8-5.3-10.8-9c-1.2-1.5-2.3-3.1-3.3-4.8
		c-0.1-0.1-0.5-0.9-0.4-0.6s-0.1-0.3-0.2-0.4s-0.1-0.3-0.2-0.5C392,359.4,387.1,360.3,388.1,363z" fill="#212529"></path><path class="st2" d="M404.9,352.5c0,0,8.4,11.9,15.3,14.6s10.5,9.9,4.3,10.5s-20.1-2.6-33.9-15.1L404.9,352.5z" fill="#f8f9fa"></path><path class="st0" d="M402.9,354c1.9,2.6,3.9,5.1,6.1,7.4c1.8,1.9,3.7,3.7,5.8,5.2c2,1.5,4.3,2.2,6.4,3.5c1.7,1.1,3.6,3,4,4.7
		c0,0.2,0,0.4,0,0.6l0.1-0.2c-0.1,0.2-0.1,0.2,0,0l-0.1,0.1c0.2-0.2,0.2-0.2,0,0l0.2-0.1c-0.3,0.1-0.3,0.1,0,0
		c-0.3,0-0.5,0.1-0.8,0.2c0.4-0.1-0.1,0-0.2,0h-0.7c-1.7,0-3.5-0.2-5.1-0.5c-2.4-0.5-4.7-1.2-7-2.1c-7-2.8-13.5-6.9-19-12l-0.6,3
		l14.4-10c1-0.5,1.3-1.8,0.7-2.7c-0.1-0.1-0.1-0.2-0.2-0.3c-0.9-1-2.4-0.6-3.4,0l-14.4,10c-0.9,0.6-1.5,2.1-0.6,3
		c5.5,5.1,11.9,9.2,18.8,12.2c4.7,2.1,9.8,3.4,15,3.6c2.4,0,5.1-0.3,6.8-2.3s1-4.7-0.3-6.7c-1.8-2.5-4.3-4.4-7.1-5.5
		c-2.3-1.1-4.4-2.5-6.1-4.3c-3.2-3-6-6.3-8.6-9.9c-0.7-1-2.5-0.6-3.4,0c-1,0.5-1.3,1.7-0.8,2.7C402.7,353.8,402.8,353.9,402.9,354z" fill="#212529"></path><path class="st2" d="M293.3,266.4c0,0-11.7,21.1-1.2,33.1s54.6,3,54.6,3s17.3,52.8,38.3,59.8s33.5-2.3,20.7-35.1
		s-27.3-53-53.8-62.4S293.3,266.4,293.3,266.4z" fill="#f8f9fa"></path><path class="st0" d="M291.1,266.3c-2.6,4.8-4.4,10-5.2,15.4c-1.2,7.6-0.1,17,6.9,21.6c5.5,3.6,12.9,4.2,19.3,4.4
		c7.4,0.1,14.7-0.3,22-1.3c4.1-0.5,8.3-1.1,12.4-2l-2-1c1.3,4,2.8,8,4.4,11.9c3.2,8.3,7.1,16.4,11.4,24.1s9.5,15.6,16.5,21
		c3.2,2.4,6.8,4,10.7,4.9c4,1.1,8.2,1.4,12.3,0.8c3.5-0.5,6.8-2.2,9.2-4.8c2.5-2.9,4-6.6,4.1-10.5c0.2-5.2-0.4-10.5-2-15.5
		c-2-6.7-4.5-13.3-7.5-19.7c-4.8-10.9-10.5-21.5-18.2-30.6c-6.9-8.2-15.5-14.9-25.2-19.4c-12-5.6-25.2-7.3-38.4-6.5
		c-9.1,0.6-18.2,2.2-27,4.8c-0.6,0.2-1.2,0.4-1.9,0.6c-1,0.3-2.2,1.5-1.9,2.7s1.7,1.1,2.6,0.8l0.3-0.1l0.4-0.1l0.3-0.1
		c0.5-0.2-0.5,0.1-0.1,0c1.3-0.4,2.6-0.8,3.9-1.1c4.4-1.1,8.8-2,13.3-2.6c12.5-1.8,25.6-1.8,37.6,2.2c9.9,3.2,19,8.7,26.5,15.9
		c7.9,7.5,13.9,16.8,18.9,26.5c3,5.7,5.6,11.6,8,17.6c2.5,5.8,4.3,11.8,5.4,17.9c0.6,3.9,0.9,8.5-0.4,12c-0.2,0.7-0.5,1.4-0.8,2
		c-0.3,0.5,0.2-0.4-0.1,0.1l-0.3,0.5c-0.2,0.3-0.5,0.7-0.8,1c0.4-0.5-0.3,0.3-0.4,0.4s-1,0.8-0.4,0.4c-0.3,0.2-0.6,0.4-0.9,0.6
		l-0.5,0.3c-0.4,0.2,0.5-0.2-0.2,0.1c-0.3,0.1-0.7,0.3-1,0.4l-0.5,0.2c0.6-0.2,0,0-0.1,0c-0.8,0.2-1.7,0.4-2.5,0.5
		c0.5,0-0.2,0-0.2,0h-0.6c-0.4,0-0.9,0-1.3,0c-1,0-2-0.1-2.9-0.2c-3.7-0.4-7.4-1.5-10.7-3.2c-7.1-4-12.1-11.1-16.3-17.8
		c-7.6-12.1-13.4-25.5-17.9-39c-0.1-0.2-0.2-0.5-0.2-0.8c-0.3-0.8-1.2-1.3-2-1c-9.7,2-19.6,3.1-29.5,3.2c-6.4,0-13.4-0.2-19.4-2.9
		c-2.6-1.2-4.7-3.2-6-5.7c-1.8-3.6-2.5-7.6-2.1-11.6c0.6-6.1,2.4-11.9,5.3-17.3c0.3-0.7,0.1-1.5-0.6-1.8c-0.2-0.1-0.5-0.2-0.7-0.2
		C292.8,264.4,291.7,265.1,291.1,266.3z" fill="#212529"></path><path class="st0" d="M279.4,274.1c0,0,3-74.2,30.7-71.1s45.9,47,41.9,54.7S298,287.4,279.4,274.1z" fill="#212529"></path><path class="st0" d="M295.6,278.8c-6.2,0-12.1-1.1-16.5-4.3c-0.1-0.1-0.2-0.3-0.2-0.4c0.5-9.5,1.6-18.9,3.2-28.2
		c3.6-20,9.1-33.3,16.3-39.5c3.2-2.9,7.5-4.3,11.7-3.8c6.3,0.7,22.3,5,35.7,30.2c5.7,10.7,8.5,21.5,6.6,25.1
		c-2.5,4.7-21.1,14.2-39.2,18.6C307.5,277.9,301.6,278.7,295.6,278.8z M279.9,273.9c8.5,5.8,22.7,4.1,33.1,1.6
		c19-4.5,36.5-14.1,38.5-18.1c1.5-2.9-0.5-12.8-6.6-24.2c-13.2-24.8-28.8-29-34.9-29.7c-4-0.4-8,0.9-11,3.6
		C282.9,221,280.1,269.8,279.9,273.9z" fill="#212529"></path><path class="st2" d="M310.2,207.4l23.2-18c0,0,11.2-18.3,10.1-21.8c-1.5-4.8-8.3-10-19.7-10.9c-10.9-0.9-21.4-1-29.4,19.5
		c-1.2,3.1-12,18.3-11.2,21.6C284.7,203.3,295.2,211.4,310.2,207.4z" fill="#f8f9fa"></path><path class="st0" d="M311.7,209l21.5-16.7c1-0.6,1.8-1.4,2.5-2.3c1-1.6,1.9-3.2,2.9-4.9c1.6-2.7,3.1-5.5,4.5-8.4
		c1.3-2.4,2.3-4.9,2.9-7.6c0.5-2.7-1.2-5.2-3-7c-2.9-2.8-6.4-4.9-10.3-6c-4-1.1-8.2-1.8-12.3-1.9c-3-0.2-5.9,0-8.8,0.6
		c-7.5,1.8-12.7,7.1-16.3,13.7c-1.7,3.1-2.7,6.4-4.5,9.4c-1.7,2.8-3.4,5.6-5.1,8.4c-1.7,2.6-3.1,5.3-4.2,8.2c-0.5,1-0.7,2.2-0.6,3.3
		c0.3,1.2,0.8,2.4,1.5,3.4c4.4,6.5,13,9.3,20.5,9.1c2.6-0.1,5.2-0.4,7.7-1.1c1.1-0.3,2.4-1.1,2.2-2.4c-0.3-1.2-1.6-2-2.8-1.7
		c-5.9,1.5-12.3,1.5-17.8-1.4c-1.9-1-3.7-2.4-5-4.1c-0.5-0.6-0.9-1.3-1.2-2c0-0.1-0.2-0.6-0.2-0.4s0-0.1,0-0.2s0-0.5,0-0.1
		s0-0.2,0.1-0.3s0.2-0.9,0.2-0.7s0.1-0.3,0.2-0.4l0.3-0.7c0.4-0.9,0.9-1.9,1.3-2.8c1.1-2.2,2.4-4.3,3.7-6.4c2.3-3.4,4.3-7,6-10.7
		c2.2-5.2,5.2-10.6,9.7-13.8c0.4-0.3,0.9-0.6,1.4-0.9s-0.1,0,0.3-0.2c0.2-0.1,0.5-0.2,0.7-0.4c0.5-0.2,0.9-0.4,1.4-0.6l0.6-0.2
		l0.3-0.1c0.4-0.1-0.6,0.1,0.1,0c1-0.2,1.9-0.4,2.9-0.5c0.5-0.1,1-0.1,1.5-0.1h0.3h0.7c5.4,0,11.1,0.5,16.1,2.7
		c2.2,0.9,4.1,2.3,5.8,4c0.6,0.7,1.2,1.4,1.5,2.3c0.1,0.2,0.2,0.4,0.2,0.6c0.2,0.4,0,0.2,0,0.1c0.1,0.6,0.1-0.2,0,0.3
		c-0.1,0.6-0.2,1.2-0.4,1.8c-0.2,0.5-0.7,1.8-1,2.5c-0.9,2-1.9,4-2.9,6c-1.7,3.2-3.5,6.3-5.4,9.4l-0.3,0.5l0.8-0.9l-20.3,15.7
		l-2.9,2.2C306.1,207.8,309.5,210.7,311.7,209z" fill="#212529"></path><path class="st2" d="M319.7,220c0,0,5.4-3.5,5.2-5.8s0.4-3.4,7.2-4.9c13.3-3.1,12.8-15.3,12.8-15.3c1.6,0.2,3.3,0.1,4.9-0.4
		c2.7-0.7,6-4.9-1.2-8c-2.1-0.7-3.7-2.4-4.1-4.6c-0.8-3.6-0.7-6.6-2.1-13l-1.5,2.5c-3.9,6.7-10.5,11.3-18.1,12.6l0,0l-0.6-0.3
		c-2.1,6.2-4.5,12.3-7.2,18.3c0,0-3.8,4.3-4.7,6.2C310.2,207.4,311.1,222.8,319.7,220z" fill="#f8f9fa"></path><path class="st0" d="M321.1,221.1c2.3-1.5,5.3-3.7,6.1-6.4c0.1-0.6,0.2-1.2,0.1-1.8c0-0.5,0,0.3,0,0c0-0.1,0-0.2,0.1-0.3
		c0.1-0.3,0,0.1-0.1,0.1c-0.2-0.1,0.4-0.2,0,0c0.4-0.2-0.4,0.1-0.1,0c0.1,0,0.5-0.4,0,0c0.2-0.2,0.5-0.3,0.8-0.4
		c-0.4,0.2,0.1-0.1,0.2-0.1l0.7-0.2c0.6-0.2,1.2-0.4,1.8-0.5c2.4-0.5,4.6-1.3,6.8-2.3c1.8-0.9,3.4-2.1,4.9-3.6
		c2.1-2.1,3.6-4.8,4.4-7.7c0.5-1.5,0.7-3.1,0.6-4.7l-3.9,2.5c4.1,0.9,11.2-0.6,11.8-5.7c0.4-3.1-2.5-4.9-5-6
		c-1.1-0.4-2.1-1.1-2.9-2.1c-0.6-1.2-1-2.6-1.1-4c-0.5-3.6-1-7.1-1.7-10.6c-0.5-2.3-3.7-0.7-4.5,0.5c-1.5,2.8-3.4,5.4-5.6,7.7
		c-3.2,3-7.1,5-11.4,5.8l1.1,0.1c-0.2-0.1-0.4-0.2-0.6-0.3c-1.4-0.7-3.4,0.7-3.8,2c-1.6,5.1-3.6,10.1-5.8,15
		c-0.1,0.2-1.2,2.9-1.3,2.9s0.6-0.7,0.1-0.2c-0.2,0.2-0.4,0.4-0.6,0.7c-0.6,0.8-1.3,1.5-1.9,2.3c-0.9,1.2-2.6,2.9-2.6,4.5
		c0,0.6,0.1,1.3,0.2,1.9c0.3,2.8,1.1,5.5,2.4,8c1.8,3.4,5.8,5,9.4,3.6c1-0.3,2.3-1.3,2.2-2.5s-1.6-1.3-2.5-1
		c-0.3,0.2-0.7,0.2-1.1,0.2c-0.1,0-0.1,0,0,0c-0.1,0-0.3,0-0.4,0s-0.6-0.1-0.2,0c-0.6-0.2-1.2-0.5-1.7-1c-1.1-1.2-1.9-2.6-2.4-4.2
		c-0.7-2.1-1.1-4.3-1.2-6.5l-0.2,1c1.1-1.8,2.3-3.5,3.7-5c0.7-0.8,1.2-1.7,1.6-2.7c2.6-5.6,4.8-11.4,6.7-17.2l-3.8,2
		c2.2,1,5.3-0.3,7.4-1.1c2.8-1.1,5.5-2.6,7.9-4.5c3.7-2.9,6.2-6.7,8.5-10.7l-4.5,0.5c0.8,3.5,1.2,7,1.7,10.6
		c0.1,1.6,0.5,3.1,1.2,4.5c0.8,1.4,2.1,2.5,3.6,3.2c1.4,0.7,3,1.2,3.8,2.6c0.2,0.3,0.4,0.7,0.3,1.1c0-0.3-0.1,0.3-0.1,0.4
		c0.2-0.5-0.4,0.6,0,0c-0.1,0.1-0.6,0.6-0.2,0.2c-0.1,0.1-0.8,0.6-0.2,0.2c-0.2,0.2-0.4,0.2,0,0c-0.2,0.1-0.5,0.2-0.8,0.2
		c-0.8,0.2-1.6,0.3-2.4,0.3c-0.3,0-1.6-0.2-0.5,0c-1.5-0.3-3.9,0.6-3.9,2.5c0,0.3,0,0.6,0,1c0-0.2,0-0.2,0,0.1l-0.1,0.5
		c-0.1,0.5-0.1,0.9-0.3,1.4c-0.5,2.3-1.6,4.5-3.2,6.2c-0.5,0.5-1,0.9-1.5,1.3c-0.6,0.4-1.3,0.8-2,1.1c-2,0.8-4.1,1.4-6.3,1.9
		c-2.9,0.8-6.6,2.3-6.7,5.8c0,0.2,0,0.5,0,0.7c0,0.1,0,0.4,0,0.3c-0.3,0.5-0.7,1-1.2,1.4c-0.9,0.9-1.9,1.6-3,2.3
		c-0.8,0.5-1.4,1.9-0.6,2.6S320.2,221.6,321.1,221.1z" fill="#212529"></path><path class="st0" d="M339,182c0.4,0.8,0.1,1.7-0.6,2.1c-0.1,0-0.1,0.1-0.2,0.1c-1.6,0.6-2.4-1.4-1.2-2.4c0.5-0.5,1.3-0.5,1.9,0
		C338.9,181.9,339,181.9,339,182z" fill="#212529"></path><path class="st2" d="M324.7,189.2c0,0-0.6-8.4-6.5-6.1s-2.9,11.2,1.7,13.3" fill="#f8f9fa"></path><path class="st0" d="M327.1,188.7c-0.2-3.1-1.5-6.7-4.9-7.4c-3.2-0.5-6.4,0.8-8.4,3.3c-1.4,2.1-1.7,4.7-0.8,7.1
		c0.8,2.7,2.7,4.9,5.1,6.2c1.2,0.3,2.5,0.1,3.4-0.7c0.6-0.6,1.2-1.6,0.2-2.1l-0.3-0.2c-0.1,0-0.4-0.2-0.1-0.1
		c-0.2-0.1-0.4-0.2-0.5-0.4c-0.4-0.3-0.8-0.6-1.1-1c-0.1-0.2-0.3-0.4-0.4-0.5l-0.3-0.3c-0.3-0.4,0.1,0.1-0.1-0.1
		c-0.3-0.5-0.6-0.9-0.8-1.4c-0.2-0.4-0.4-0.9-0.5-1.4c-0.1-0.2-0.1-0.4-0.2-0.7s-0.1-0.3-0.1-0.4s0-0.2,0-0.3c0,0.1,0,0.1,0,0
		c-0.1-0.5-0.1-0.9,0-1.4c0-0.2,0-0.4,0.1-0.6s0.1-0.2,0.1-0.4c-0.1,0.3,0,0,0-0.1c0.1-0.2,0.2-0.4,0.3-0.6c0.1-0.1,0.1-0.2,0.2-0.3
		c-0.2,0.4-0.1,0.1,0,0s0.1-0.2,0.2-0.2c0.3-0.4-0.4,0.3,0,0l0.2-0.2c0.5-0.4-0.3,0.1,0.1-0.1c0.6-0.3-0.5,0.2,0.2-0.1
		c0.3-0.1,0.6-0.1,0,0c0.1,0,0.2,0,0.3-0.1c0.5-0.1,0.1,0.1-0.1,0c0.1,0,0.2,0,0.3,0c0.4,0,0-0.1-0.1,0s0.3,0,0.4,0s0.3,0.1-0.1,0
		l0.3,0.1c0.1,0,0.6,0.3,0.2,0.1c0.3,0.2,0.6,0.5,0.9,0.7c0.1,0.1,0.2,0.3,0.3,0.4c-0.2-0.3,0.1,0.2,0.2,0.3c0.2,0.3,0.3,0.7,0.5,1
		c0.3,0.7,0.4,1.4,0.6,2.1c0.1,0.2,0.1,0.5,0.1,0.7c0.1-0.5,0-0.2,0,0c0.1,1.1,1.4,1.2,2.2,1c0.6-0.1,1.2-0.4,1.8-0.8
		C326.6,189.6,327.1,189.2,327.1,188.7L327.1,188.7z" fill="#212529"></path><path class="st0" d="M327.6,166.6c-6.3,6.5-15,10-24,9.8c-1.1,0-0.6,1.9-0.4,2.4c0.4,1.1,1.4,1.8,2.5,2c9.3,0.3,18.2-3.4,24.7-10
		C331.8,169.4,328.8,165.4,327.6,166.6L327.6,166.6z" fill="#212529"></path><path class="st0" d="M301.4,189.1l-5.7,13.7c-0.4,0.9,1.4,0.9,1.9,0.9c0.6,0,1.3-0.2,1.9-0.4c0.4-0.1,0.9-0.4,1.1-0.7l5.7-13.7
		c0.4-0.9-1.4-0.9-1.9-0.9c-0.6,0-1.3,0.2-1.9,0.4C302.1,188.5,301.6,188.7,301.4,189.1L301.4,189.1z" fill="#212529"></path><path class="st0" d="M332.3,193.2c0.2,0.1,0.4,0.1,0.6,0.2l-0.3-0.1c0.4,0.2,0.8,0.5,1.1,0.8l-0.2-0.2c0.4,0.5,0.7,1,0.9,1.6
		l-0.1-0.3c0.1,0.2,0.1,0.5,0.2,0.7c0.1,0.3,0.3,0.6,0.6,0.6c0.4,0.1,0.8,0.1,1.2-0.1c0.5-0.2,0.9-0.5,1.2-0.8
		c0.3-0.3,0.4-0.6,0.4-1c-0.1-0.8-0.4-1.5-0.8-2.2c-0.6-0.9-1.5-1.6-2.6-1.9c-0.4-0.1-0.8,0-1.2,0.1c-0.5,0.2-0.9,0.5-1.2,0.8
		c-0.3,0.3-0.4,0.6-0.4,1C331.8,192.9,332,193.2,332.3,193.2L332.3,193.2z" fill="#212529"></path><path class="st2" d="M269.4,221.1c-3.6-11.7,1-26,5.8-28.9s10.2,3.9,10.2,3.9s11.7-1.1,9.4,6.1c0,0,8,3.4,1.7,7.1
		c0,0,3.1,6.1-8.2,11.2c0,0,18.4,63.1,4,68.6s-22.9-8.2-24.3-32.7C267.6,249.3,269.4,221.1,269.4,221.1z" fill="#f8f9fa"></path><path class="st0" d="M271.8,221.2c-1.5-5.4-1.7-11-0.5-16.5c0.8-3.9,2.2-8.7,5.3-11.4c0.4-0.4,0.9-0.6,1.4-0.8
		c-0.2,0.1-0.5-0.2,0,0c0.4,0.2,0.8,0.4,1.2,0.6c1.3,0.8,2.4,1.7,3.4,2.8c1,0.9,2.3,1.3,3.6,1.1h1.1c-0.9,0,0.1,0,0.3,0l1.1,0.1
		c-0.7-0.1,0.5,0.1,0.7,0.1l0.4,0.1c-0.5-0.1,0.2,0,0.3,0.1c0.5,0.1,1,0.4,1.4,0.7c1.3,1,1.3,2.6,0.9,4.1c-0.1,0.3,0.5,0.6,0.7,0.7
		s0.9,0.4,0.7,0.3c0.7,0.4,1.3,0.8,1.9,1.3c1.6,1.7,0.5,3.2-1.2,4.3c-0.3,0.2-0.4,0.4-0.3,0.7c0.1,0.2,0.2,0.5,0.2,0.8
		c0.1,0.8,0.1,1.7-0.2,2.5c-1,3.6-4.9,5.7-8,7.1c-0.2,0.1-0.3,0.2-0.4,0.4c1.8,6.2,3.3,12.5,4.7,18.8c2.5,11.1,4.7,22.6,4.8,34
		c0,4-0.1,8.6-2,12.2c-0.6,1.3-1.5,2.3-2.8,3c-0.2,0.1,0.4-0.1-0.3,0.1c-0.3,0.1-0.7,0.2-1,0.3c-0.6,0.2-1.2,0.4-1.9,0.5l-0.6,0.1
		c-0.4,0,0.3,0-0.1,0c-0.2,0-1.1,0-0.6,0c-0.3,0-0.6,0-0.9,0c0.6,0-0.4-0.1-0.6-0.1c0.4,0.1-0.3-0.1-0.4-0.1c-0.2,0-0.4-0.1-0.6-0.2
		c-0.5-0.2-1.1-0.5-1.6-0.8c-1-0.6-2-1.4-2.8-2.3c-2.1-2.4-3.7-5.1-4.8-8c-2.8-7.1-3.9-15.3-4-22.9c-0.2-10.9,0.7-21.9,1.3-32.8
		C271.8,221.7,271.8,221.4,271.8,221.2c0-1.3-5-1.6-5.1-0.3c-0.6,10.4-1.2,20.8-1.4,31.2c-0.1,7.5,0.9,15.1,3,22.3
		c1.8,5.9,4.8,12.2,10.6,15.1c2.9,1.4,6,1.9,9.2,1.6c2.5-0.2,5.5-0.7,7.6-2.3c3-2.3,3.8-6.5,4.2-10c0.4-5.4,0.3-10.8-0.4-16.2
		c-0.7-6.1-1.7-12.1-3-18.1c-1.1-5.2-2.2-10.3-3.5-15.4c-0.5-1.8-0.9-3.5-1.4-5.3c-0.2-1-0.5-2-0.8-2.9c0-0.1-0.1-0.3-0.1-0.4
		l-0.4,0.4c3.5-1.6,7.5-4,8.7-7.9c0.4-1.3,0.4-2.7-0.2-4l-0.3,0.7c2.1-1.3,3.8-3.3,1.9-5.6c-1.1-1.2-2.4-2.1-3.9-2.7l0.7,0.7
		c2-6.8-8.1-7.6-12.6-7.2l3,0.8c-3.3-4.1-9.4-7.1-14.5-4.5c-2.2,1.2-3.7,3.6-4.7,5.9c-1.4,3.2-2.4,6.7-2.8,10.2
		c-0.6,4.5-0.3,9.1,1,13.5C267.3,222.4,272.1,222.1,271.8,221.2z" fill="#212529"></path><path class="st0" d="M278.5,205.1c0.5-0.4,0.9-0.8,1.3-1.3c0.6-0.7,1.3-1.4,2-2.1c0.4-0.4,0.8-0.8,1.2-1.2l0.4-0.4l0.2-0.2
		l-0.1,0.1c0.2-0.2,0.5-0.4,0.8-0.6c0.9-0.8,1.9-1.5,3-2.1c1-0.5,0.3-1.8-0.4-2.2c-1-0.7-2.3-0.8-3.5-0.3c-2.2,1.3-4.3,2.9-6,4.8
		c-0.7,0.7-1.4,1.4-2.1,2.2c-0.2,0.2-0.4,0.5-0.6,0.7l-0.2,0.2c-0.3,0.3,0.4-0.3,0.1-0.1c-0.9,0.7-0.5,1.7,0.4,2.2
		S277.5,205.8,278.5,205.1L278.5,205.1z" fill="#212529"></path><path class="st0" d="M286.7,206.5c0.9-0.8,1.9-1.5,2.9-2.1l0.3-0.2c-0.4,0.3,0,0,0,0s0.4-0.3,0.7-0.4s0.5-0.2,0.7-0.3
		c0.5-0.2-0.4,0.1-0.1,0l0.3-0.1l0.3-0.1c0.4-0.1-0.7,0.2-0.2,0.1c0.3-0.1,0.6,0-0.2,0h-0.3c0.5,0-0.6,0-0.2,0s-0.5-0.1-0.1,0h0.1
		l-0.2-0.1c0.1,0,0.2,0.1,0.3,0.1c0.5,0.2,1,0.2,1.5,0.1c0.6,0,1.3-0.1,1.9-0.4c0.5-0.2,1.7-0.8,0.7-1.2c-1.3-0.4-2.6-0.5-3.9-0.2
		c-1.3,0.2-2.6,0.6-3.8,1.2c-1.5,0.8-3,1.7-4.3,2.7c-0.3,0.2-0.5,0.4-0.8,0.7c-0.8,0.7,0.5,0.9,1.1,1c0.6,0,1.3,0,1.9-0.2
		C285.8,206.9,286.3,206.7,286.7,206.5L286.7,206.5z" fill="#212529"></path><path class="st0" d="M291.9,213.9c0.8-0.5,1.7-1,2.6-1.5l-0.4,0.2c1.1-0.6,2.3-1.1,3.4-1.5c0.4-0.1,0.6-0.4,0.6-0.8
		c-0.1-0.5-0.4-0.9-0.7-1.2c-0.5-0.4-1.1-0.7-1.7-0.9c-0.5-0.1-1.1-0.1-1.6,0c-2.2,0.8-4.4,1.9-6.4,3.2c-0.3,0.3-0.3,0.7-0.2,1
		c0.3,0.5,0.7,0.9,1.1,1.1C289.6,214.1,291,214.5,291.9,213.9L291.9,213.9z" fill="#212529"></path><path class="st1" d="M281.4,197.2c0-3.6-0.5-7.2-0.9-10.8c-0.7-7.7-1.3-15.4-2-23.1c-0.8-9.2-1.7-18.5-2.5-27.7
		c-0.7-8.1-1.4-16.2-2.1-24.2c-0.4-4.2-0.8-8.5-1-12.8v-0.1c0-1.6-4.7-0.2-4.7,1.2c0,3.6,0.5,7.2,0.9,10.8c0.7,7.7,1.3,15.4,2,23.1
		c0.8,9.2,1.6,18.5,2.5,27.7c0.7,8.1,1.4,16.2,2.1,24.2c0.4,4.2,0.8,8.5,1.1,12.8c0-0.1,0-0.2,0,0.1
		C276.7,200,281.4,198.6,281.4,197.2L281.4,197.2z" fill="#4dabf7"></path><path class="st1" d="M282.6,291c-0.2,5.4,0,10.8,0.5,16.2c0.1,1.2,1.7,2,2.8,2.1s2-0.6,1.9-1.8c-0.5-5.1-0.6-10.1-0.4-15.2
		c-0.1-1.2-1-2.3-2.2-2.5C284.2,289.6,282.6,289.8,282.6,291L282.6,291z" fill="#4dabf7"></path></g><g id="swing-1"><path class="st2" d="M62.5,277.6c0,0,29.6,9.1,55.9,7.4c16.1-1.2,31.7-6.4,45.3-15.1c0,0,41.4,17,40.8,23.9s-25.2,19.7-66.6,24.2
		S62.5,277.6,62.5,277.6z"></path><path class="st1" d="M63.4,279.7c12.1,3.6,24.5,6,37.1,7.1c10.2,1.1,20.4,0.7,30.5-1.1c8.1-1.6,16-4.2,23.5-7.8
		c3.7-1.7,7.2-3.7,10.6-5.9h-0.6c9.9,4,19.6,8.6,29,13.8c2.6,1.4,5.2,3.1,7.6,4.9l0.4,0.3c-0.3-0.2-0.1-0.1,0,0l0.7,0.6
		c0.2,0.2,0.4,0.4,0.6,0.6s0.3,0.3-0.1-0.1l0.4,0.4c0.4,0.5-0.3-0.5,0,0s-0.3-0.5,0,0c-0.4-0.7,0,0.3-0.2-0.4c0.1,0.5,0.1-0.2,0,0.1
		s0.1-0.2,0,0.1c0,0.2-0.1,0.3-0.1,0.5c-0.1,0.3-0.2,0.7-0.4,1c-0.4,0.7-0.9,1.3-1.4,1.8c-1.7,1.7-3.7,3.2-5.8,4.4
		c-6.8,4.1-14.5,6.8-22.1,9c-11.4,3.3-23.1,5.6-34.9,6.8c-9.5,1.1-19-0.1-28-3.3c-8.3-3.1-16-7.3-23.1-12.6
		c-8.9-6.6-16.9-14.3-23.9-22.8c0.5,0.6,0.3,0.4,0,0.1s-1.5-2-2.2-1.5s0.5,2.2,0.7,2.5c3.5,4.4,7.2,8.6,11.3,12.5
		c8.3,8.3,17.8,15.4,28.1,21c12.1,6.4,25.5,9.9,39.2,8.3c15.8-1.8,31.6-4.9,46.4-10.7c4.7-1.7,9.1-4,13.3-6.7
		c2.2-1.5,4.9-3.5,5.8-6.1c1.1-3.1-2.1-6.4-4.2-8.3c-3.6-2.9-7.4-5.4-11.5-7.5c-8.1-4.4-16.5-8.3-24.9-11.9c-0.7-0.4-1.5-0.7-2.3-1
		c-0.7-0.2-0.9,0.1-1.5,0.5c-3.3,2.1-6.8,4-10.4,5.7c-6.6,3.1-13.5,5.4-20.6,7c-8.7,1.8-17.6,2.4-26.4,1.9
		c-13.6-0.8-27.1-3-40.2-6.7l-2.2-0.6c-1-0.3-0.7,0.9-0.5,1.4C61.6,277.9,62.5,279.4,63.4,279.7z"></path><path class="st1" d="M183.2,105.5c0,6-0.6,12.1-1,18.2c-0.7,13.3-1.5,26.5-2.3,39.8l-2.7,47.6c-0.8,13.8-1.6,27.6-2.4,41.4
		c-0.4,7.1-0.9,14.3-1.2,21.4c0,0.2,0,0.4,0,0.6c0,0.5,5,0.4,5-0.4c0-6,0.6-12.1,0.9-18.1c0.8-13.3,1.5-26.5,2.3-39.8
		c0.9-15.8,1.8-31.7,2.8-47.5c0.8-13.8,1.6-27.6,2.4-41.4c0.4-7.1,0.9-14.2,1.2-21.4c0-0.2,0-0.4,0-0.6
		C188.2,104.6,183.2,104.7,183.2,105.5L183.2,105.5z"></path><path class="st1" d="M178.1,211.2c0,6.8-0.6,13.6-0.9,20.4c-0.5,10.2-1,20.4-1.5,30.6c-0.1,2.7-0.3,5.4-0.3,8
		c0,1.2,0.5,2.3,1.3,3.2c0.3,0.4,1.6,1.3,1.6,0.2c0-6.8,0.6-13.6,0.9-20.4c0.5-10.2,1-20.4,1.5-30.6c0.1-2.7,0.3-5.4,0.4-8
		c-0.1-1.2-0.5-2.3-1.3-3.2C179.4,211,178.1,210.1,178.1,211.2L178.1,211.2z"></path><path class="st1" d="M99.3,304.3c-0.1-2-0.4-4.1-0.8-6.1c-0.7-5-1.4-10.1-2.1-15.1c-1-7.3-2-14.7-3-22l-3.7-26.6l-4.1-29.1
		c-1.4-9.8-2.8-19.6-4.2-29.4c-1.3-9.1-2.6-18.3-3.8-27.4c-1.1-7.8-2.2-15.6-3.2-23.3c-0.8-5.7-1.6-11.3-2.3-17
		c-0.4-2.8-0.8-5.7-1.1-8.5c0-0.2,0-0.4,0-0.5c0-0.8-1.7-1.7-2.3-2c-0.3-0.2-1.9-1-1.9-0.3c0.1,2,0.4,4.1,0.8,6.1
		c0.7,5.1,1.4,10.1,2.1,15.1c1,7.3,2,14.7,3,22c1.2,8.9,2.5,17.8,3.7,26.6l4.1,29.1c1.4,9.8,2.7,19.6,4.1,29.4l3.8,27.4
		c1.1,7.8,2.2,15.5,3.2,23.3c0.8,5.7,1.6,11.3,2.3,17c0.4,2.8,0.8,5.7,1.1,8.5c0,0.2,0,0.4,0,0.5c0,0.8,1.7,1.7,2.3,2
		C97.7,304.2,99.3,305,99.3,304.3L99.3,304.3z"></path><path class="st0" d="M154.5,381.9c0,0-69.8-1.9-52.5,11.1S213.2,388.7,154.5,381.9z"></path><path class="st0" d="M140.1,294.1c9.9,0.4,19.6-6.9,21.6-16.7c0.5-2.5,0.7-5.4-0.5-7.8c-1.2-2.6-4.1-3.9-6.6-4.8
		c-3-1-6.2-1.6-9.4-1.7c-2.9-0.3-5.8-0.2-8.6,0.4c-2,0.5-4.2,1.8-4.3,4.1s2,4,3.9,5c2.6,1.3,5.7,2.3,8.5,1.3c2.4-1,4.4-2.7,6-4.8
		c2-2.5,3.9-5.1,5.8-7.7c1.7-2.5,3.6-5.1,4.3-8.1c1.2-5.8-3.1-10.5-7.9-13c-6.4-3.4-14.1-4.3-21.3-4.3c-7.3,0-14.5,1.3-21.4,3.8
		c-0.6,0.2,1.3,1.1,1.4,1.1c0.7,0.3,2.2,1.1,3,0.8c10.1-3.7,21.5-5,32.1-2.8c4.5,0.8,8.1,4.2,9.3,8.6c1.2,5.1-2.5,9.8-5.3,13.7
		c-1.5,2.1-3.1,4.3-4.8,6.3c-1.4,1.8-3.2,3.3-5.2,4.3c-0.5,0.2-1.1,0.4-1.6,0.5s-1.7-0.1-0.6,0.3s-0.1-0.3-0.4-0.6
		c-0.3-0.4-0.6-0.8-0.8-1.3c-0.6-1.9,0.4-3.9,2.2-4.7c2-0.8,4.1-1.2,6.2-1.1c2.8-0.1,5.5,0.2,8.2,0.6c0.6,0,1.2,0.3,1.6,0.8
		c0.9,0.9,1.5,2,1.8,3.3c0.4,2.2,0.3,4.4-0.2,6.5c-2.2,9.1-11.2,16.4-20.7,16c-1,0,0.4,0.8,0.6,0.9
		C137.9,293.6,139,293.9,140.1,294.1L140.1,294.1z"></path><path class="st0" d="M103.1,252.2l-2.4,1.2c-0.1,0-0.2,0.1-0.3,0.2c-0.1,0.1,0,0.1,0,0.2c0.1,0.1,0.3,0.1,0.5,0.1
		c0.2,0.1,0.5,0.1,0.7,0.1c0.6,0,1.3,0,1.9-0.1l0.6-0.1c0.3,0,0.6-0.1,0.9-0.2l2.4-1.2c0.1,0,0.2-0.1,0.3-0.2c0.1-0.1,0.1-0.1,0-0.2
		c-0.1-0.1-0.3-0.1-0.5-0.1c-0.2-0.1-0.5-0.1-0.7-0.1c-0.6,0-1.3,0-1.9,0.1L104,252C103.6,252,103.4,252.1,103.1,252.2L103.1,252.2z
		"></path><path class="st0" d="M115.1,221.8c0.8,0,2.5-0.1,2.5-1.2s-1.8-1.3-2.5-1.3s-2.5,0.1-2.5,1.2S114.5,221.8,115.1,221.8z"></path></g></svg>