<svg
  xmlns="http://www.w3.org/2000/svg"
  viewBox="610.9259 324.42596 713.77405 689.14807"
>
  <circle
    cx="1178.6"
    cy="847.3"
    r="146.1"
    fill="rgb(77, 171, 247)"
  />
  <path
    d="M1146.4,479.4
       c4.9-80.5-56.5-149.8-137-154.7
       c-80.5-4.9-149.8,56.5-154.7,137
       c-0.8,13.4,0.2,26.4,2.9,39
       c0,0.2,0,0.4,0.1,0.5
       c30.9,191-134.1,224-134.1,224
       s0,0,0,0
       c-61.2,14.4-108.4,67.4-112.4,133.4
       c-4.9,80.5,56.5,149.8,137,154.7
       c80.5,4.9,149.8-56.5,154.7-137
       c0.6-10.1,0.2-20.1-1.2-29.7
       c-12-166.9,110.8-224.6,143-236.8
       c2.5-0.8,5-1.6,7.4-2.6
       c0.1,0,0.2-0.1,0.2-0.1
       l0,0
       C1104.4,587.5,1142.8,538.7,1146.4,479.4
       z"
    fill="rgb(25, 113, 194)"
  />
</svg>